<svg width="40" height="40" viewBox="0 0 40 40" fill="none" xmlns="http://www.w3.org/2000/svg">
<path d="M25.8333 23.3334H24.5166L24.05 22.8834C25.0915 21.6733 25.8528 20.248 26.2792 18.7094C26.7056 17.1708 26.7867 15.5569 26.5166 13.9834C25.7333 9.35002 21.8666 5.65002 17.2 5.08335C15.5593 4.8758 13.8929 5.04631 12.3283 5.58183C10.7637 6.11736 9.34237 7.00372 8.17301 8.17307C7.00366 9.34243 6.1173 10.7638 5.58177 12.3284C5.04624 13.893 4.87573 15.5594 5.08329 17.2C5.64996 21.8667 9.34996 25.7334 13.9833 26.5167C15.5569 26.7868 17.1707 26.7057 18.7093 26.2793C20.2479 25.8528 21.6732 25.0916 22.8833 24.05L23.3333 24.5167V25.8334L30.4166 32.9167C31.1 33.6 32.2166 33.6 32.9 32.9167C33.5833 32.2334 33.5833 31.1167 32.9 30.4334L25.8333 23.3334ZM15.8333 23.3334C11.6833 23.3334 8.33329 19.9834 8.33329 15.8334C8.33329 11.6834 11.6833 8.33335 15.8333 8.33335C19.9833 8.33335 23.3333 11.6834 23.3333 15.8334C23.3333 19.9834 19.9833 23.3334 15.8333 23.3334Z" fill="#1F1F1F"/>
</svg>
