<svg width="46" height="46" viewBox="0 0 46 46" fill="none" xmlns="http://www.w3.org/2000/svg">
<g clip-path="url(#clip0_161_112)">
<path d="M18.8374 18.375C22.9795 18.375 26.3374 15.0171 26.3374 10.875C26.3374 6.73286 22.9795 3.375 18.8374 3.375C14.6953 3.375 11.3374 6.73286 11.3374 10.875C11.3374 15.0171 14.6953 18.375 18.8374 18.375Z" fill="#1F1F1F"/>
<path d="M21.05 40.275C20.6369 39.8664 20.3674 39.335 20.2817 38.7603C20.1961 38.1857 20.299 37.5987 20.575 37.0875L21.2375 35.8375L19.875 35.425C19.3194 35.2511 18.8357 34.9007 18.4973 34.4269C18.1589 33.9532 17.9843 33.382 18 32.8V30.2375C17.999 29.6581 18.1843 29.0937 18.5287 28.6277C18.8731 28.1618 19.3583 27.819 19.9125 27.65L21.275 27.2375L20.625 25.9875C20.3571 25.4832 20.2551 24.9072 20.3337 24.3416C20.4122 23.776 20.6673 23.2496 21.0625 22.8375C20.1008 22.7114 19.1324 22.6446 18.1625 22.6375C15.2979 22.57 12.4537 23.1356 9.8328 24.2937C7.21188 25.4518 4.87881 27.174 3 29.3375V39.025C3 39.3565 3.1317 39.6744 3.36612 39.9089C3.60054 40.1433 3.91848 40.275 4.25 40.275H21.05Z" fill="#1F1F1F"/>
<path d="M42.6251 29.825L40.1251 29.075C39.9518 28.4576 39.7086 27.8621 39.4001 27.3L40.6501 24.975C40.6984 24.8887 40.716 24.7886 40.7002 24.691C40.6843 24.5933 40.6358 24.504 40.5626 24.4375L38.7501 22.6125C38.6803 22.5445 38.5913 22.4997 38.4951 22.4841C38.399 22.4684 38.3003 22.4827 38.2126 22.525L35.9001 23.775C35.3309 23.4658 34.732 23.2145 34.1126 23.025L33.3501 20.525C33.3165 20.4328 33.2552 20.3533 33.1747 20.2973C33.0941 20.2414 32.9982 20.2117 32.9001 20.2125H30.3001C30.2026 20.2152 30.1083 20.2478 30.0301 20.306C29.9518 20.3641 29.8933 20.445 29.8626 20.5375L29.1126 23.0375C28.4811 23.2212 27.873 23.477 27.3001 23.8L25.0376 22.55C24.9496 22.5032 24.8492 22.4853 24.7505 22.4988C24.6518 22.5122 24.5598 22.5564 24.4876 22.625L22.6501 24.425C22.5777 24.4947 22.5301 24.5861 22.5143 24.6853C22.4985 24.7846 22.5154 24.8862 22.5626 24.975L23.8126 27.25C23.4777 27.8146 23.2053 28.4139 23.0001 29.0375L20.5001 29.8C20.4055 29.8273 20.3225 29.8849 20.2638 29.9639C20.2051 30.043 20.1739 30.139 20.1751 30.2375V32.8C20.1739 32.8984 20.2051 32.9945 20.2638 33.0735C20.3225 33.1525 20.4055 33.2101 20.5001 33.2375L23.0001 34C23.1875 34.6122 23.4389 35.203 23.7501 35.7625L22.5001 38.1375C22.4529 38.2262 22.436 38.3279 22.4518 38.4271C22.4676 38.5264 22.5152 38.6177 22.5876 38.6875L24.4501 40.5C24.5223 40.5686 24.6143 40.6127 24.713 40.6262C24.8117 40.6396 24.9121 40.6217 25.0001 40.575L27.3376 39.325C27.8939 39.6242 28.4805 39.863 29.0876 40.0375L29.8376 42.6C29.869 42.6945 29.9294 42.7767 30.0102 42.835C30.0909 42.8934 30.188 42.9248 30.2876 42.925H32.8501C32.9475 42.9223 33.0418 42.8896 33.1201 42.8315C33.1983 42.7733 33.2568 42.6925 33.2876 42.6L34.0376 40.0375C34.6374 39.8652 35.216 39.6262 35.7626 39.325L38.1251 40.575C38.213 40.6217 38.3135 40.6396 38.4122 40.6262C38.5109 40.6127 38.6028 40.5686 38.6751 40.5L40.5001 38.6875C40.5687 38.6152 40.6128 38.5233 40.6263 38.4246C40.6397 38.3259 40.6218 38.2254 40.5751 38.1375L39.3251 35.7875C39.6241 35.2399 39.863 34.6615 40.0376 34.0625L42.5376 33.3C42.6315 33.2698 42.714 33.2118 42.7743 33.1337C42.8346 33.0555 42.8697 32.961 42.8751 32.8625V30.275C42.8781 30.1843 42.8565 30.0946 42.8124 30.0153C42.7684 29.9361 42.7036 29.8703 42.6251 29.825ZM31.5876 35.725C30.7613 35.7275 29.9529 35.4847 29.2647 35.0274C28.5765 34.5702 28.0394 33.919 27.7215 33.1564C27.4036 32.3937 27.3191 31.5539 27.4788 30.7432C27.6385 29.9325 28.0351 29.1874 28.6185 28.6023C29.2019 28.0171 29.9458 27.6182 30.756 27.4561C31.5662 27.294 32.4063 27.376 33.1699 27.6916C33.9335 28.0072 34.5863 28.5423 35.0456 29.2292C35.5049 29.916 35.7501 30.7237 35.7501 31.55C35.7501 32.6551 35.3119 33.7151 34.5317 34.4977C33.7514 35.2803 32.6927 35.7217 31.5876 35.725Z" fill="#1F1F1F"/>
</g>
<defs>
<clipPath id="clip0_161_112">
<rect width="45" height="45" fill="white" transform="translate(0.5 0.5)"/>
</clipPath>
</defs>
</svg>
